<?xml version="1.0" encoding="utf-8"?>
<!-- Generator: Adobe Illustrator 23.0.1, SVG Export Plug-In . SVG Version: 6.00 Build 0)  -->
<svg version="1.1" id="Layer_1" xmlns="http://www.w3.org/2000/svg" xmlns:xlink="http://www.w3.org/1999/xlink" x="0px" y="0px"
	 viewBox="0 0 595.28 841.89" style="enable-background:new 0 0 595.28 841.89;" xml:space="preserve">
<style type="text/css">
	.st0{fill:#FFFFFF;stroke:#000000;stroke-miterlimit:10;}
	.st1{fill:#0011C9;stroke:#000000;stroke-width:3;stroke-miterlimit:10;}
	.st2{fill:#FFFFFF;stroke:#000000;stroke-width:3;stroke-miterlimit:10;}
	.st3{fill:#0011C9;stroke:#000000;stroke-width:2;stroke-miterlimit:10;}
	.st4{fill:#FFFFFF;stroke:#000000;stroke-width:2;stroke-miterlimit:10;}
	.st5{fill:#0011C9;stroke:#000000;stroke-miterlimit:10;}
	.st6{fill:none;stroke:#000000;stroke-miterlimit:10;}
</style>
<path class="st0" d="M260.2,228.26"/>
<ellipse class="st1" cx="312.28" cy="383.49" rx="231.32" ry="173.11"/>
<ellipse class="st2" cx="312.28" cy="385.28" rx="211.91" ry="157.02"/>
<path class="st3" d="M208.88,442.47c-0.78-6.04-11.53-5.66-14.04-12.77c-1.33-3.76,0.34-7.63,1.79-10.98
	c2.17-5.03,5.62-8.02,7.91-9.96c1.74-1.47,4.35-3.68,8.17-5.11c4.32-1.61,8.6-0.95,17.11,0.26c7.77,1.1,10.05,2.42,11.24,3.31
	c2.36,1.75,4.33,3.33,4.33,3.33c2.71,2.17,2.77,2.37,3.32,2.55c2.28,0.75,5.04-1.58,10.47-7.15c8.66-8.88,9.23-10.76,13.02-12.26
	c4.37-1.72,8.94-1.32,8.94-2.04c0-0.77-4.34-1.79-4.34-1.79c0,0-1.67-2.3-3.57-4.09c-1.76-1.66-1.94-1.21-3.32-2.55
	c-2.43-2.38-3.02-4.93-3.48-4.78c-0.4,0.12,0.25,1.96-0.09,4.53c-0.19,1.43-0.51,4-2.3,5.36c-2.2,1.67-5.32,0.8-8.17,0
	c-1.24-0.35-3.01-0.86-4.85-2.3c-1.39-1.08-3.03-2.36-3.32-4.34c-0.35-2.34,1.39-4.4,3.06-6.38c1.54-1.82,1.92-1.5,3.57-3.57
	c1.47-1.84,1.76-2.83,2.81-3.06c1.18-0.26,2.05,0.73,3.57,1.79c3.35,2.32,6.84,2.85,9.96,3.32c2.59,0.39,4.1,0.62,6.13,0.26
	c1.3-0.24,2.09-0.59,3.57-0.51c1.4,0.07,2.23,0.46,3.83,1.02c0.93,0.33,3.33,1.17,5.36,1.53c3.53,0.63,3.93-0.54,7.66,0
	c1.43,0.21,3.37,0.49,5.36,1.79c2.03,1.32,3.07,3.02,4.34,5.11c1.26,2.07,1.05,2.37,2.81,5.62c1.37,2.53,1.46,2.27,2.55,4.34
	c1.87,3.53,2.8,6.53,3.06,7.4c0,0,0.1,0.32,1.28,4.85c0.43,0.9,1.36,2.48,3.06,3.06c1.97,0.68,3.91-0.33,5.62-1.28
	c8.62-4.75,13.1-8.52,16.6-11.74c2.45-2.27,3.69-3.59,3.32-4.6c-0.59-1.61-5.11-2.01-7.15-2.04c-2.02-0.03-3.08,0.29-4.09-0.51
	c-1-0.8-1.59-2.42-1.02-3.57c0.71-1.44,2.95-1.61,4.34-1.28c1.67,0.4,1.54,1.39,3.83,2.3c1.44,0.57,2.78,0.69,3.57,0.77
	c0.26,0.02,1.3,0.11,2.81,0c1.83-0.14,3.43-0.25,5.11-1.02c2.12-0.97,2.2-1.97,4.85-3.32c1.08-0.55,1.71-1.16,2.55-1.02
	c1.13,0.19,1.8,1.38,2.04,1.79c0.54,0.93,5.89,7,16.6,19.15c0.9,1.02,1.82,2.04,3.32,3.06c1.12,0.76,5.19,3.53,9.45,2.55
	c3.15-0.73,3.35-2.8,5.87-2.81c2.51-0.01,4.92,2.04,6.13,4.09c1.96,3.34,0.16,5.77,2.55,10.72c0.68,1.41,1.25,2.08,1.79,2.55
	c2.06,1.83,5.67,2.63,7.15,1.28c1.32-1.21,0.1-3.35-1.02-10.47c-0.86-5.46-0.36-5.57-1.28-10.47c-1.11-5.93-1.71-8.93-3.83-10.47
	c-2.47-1.79-4.34-0.36-7.15-2.55c-1.36-1.06-2.1-2.58-3.57-5.62c-2.11-4.34-3.15-6.55-2.3-8.94c0.16-0.46,0.86-2.42,2.55-3.06
	c2.81-1.08,4.99,2.75,10.47,5.36c7.1,3.38,10,0.1,15.57,4.09c1.46,1.04,4.45,3.18,5.62,6.89c0.87,2.76,0,4.12,1.28,6.13
	c1.93,3.04,6.16,3.47,7.15,3.57c4.04,0.41,9.5-1.12,10.98-4.85c0.5-1.26,0.17-2.9-0.51-6.13c-1.29-6.12-1.94-9.18-4.09-11.49
	c-1.49-1.6-3.05-2.23-8.68-3.83c-9.4-2.66-14.1-3.99-18.64-4.6c-9.87-1.31-11.91,0.1-15.57-2.55c-2.15-1.55-2.8-3.02-6.89-5.87
	c-3.2-2.23-4.97-2.85-4.85-3.83c0.13-0.99,2.07-1.21,9.45-3.32c3.74-1.07,3.72-1.15,5.36-1.53c2.12-0.49,4.6-0.93,8.94-1.28
	c9.89-0.8,10.39,0.37,13.53-1.02c1.36-0.6,0.78-0.61,6.89-5.36c7.06-5.49,8.4-5.92,9.19-6.13c3.84-1,4.54,0.76,8.94-0.51
	c3.76-1.09,5.97-3.16,6.64-3.83c1.06-1.06,2.46-2.49,3.06-4.85c0.2-0.78,0.73-2.98-0.26-5.36c-1.4-3.36-5-5.08-7.91-5.11
	c-0.61-0.01-1.05,0.06-4.09,1.02c-6.91,2.18-6.93,2.53-8.68,2.81c-2.92,0.46-2.81-0.53-9.45-1.28c-2.83-0.32-5.69-0.64-9.45-0.51
	c-4.57,0.16-6.47,0.84-8.68-0.51c-0.43-0.26-2.93-1.86-2.81-3.83c0.15-2.5,4.35-2.78,11.49-7.4c3.89-2.52,6.14-4.7,8.68-7.15
	c1.18-1.15,2.72-2.71,4.09-5.11c1.19-2.09,2.19-3.9,1.79-6.13c-0.43-2.39-2.21-3.82-2.55-4.09c-1.22-0.94-3.63-2.13-8.43-1.28
	c-13.98,2.5-67.17,25.81-74.3,17.87c-2.28-2.54-2.81-6.13-2.81-6.13c-0.4-2.7,0.43-4.09-0.26-6.89c-0.34-1.4-0.7-3.83-2.3-4.6
	c-1.02-0.49-2.12-0.13-2.55,0c-4.58,1.37-8.63-0.99-18.64-0.51c-7.48,0.36-6.37,1.73-10.72,1.28c-4.45-0.46-7.59-2.09-12-0.77
	c-0.88,0.26-2.21,0.77-3.57,1.79c-1.12,0.83-3.05,2.28-3.57,4.85c-0.09,0.42-0.58,3.09,1.02,5.11c1.06,1.34,2.85,1.76,6.38,2.55
	c3.33,0.75,3.34,0.38,5.62,1.02c2.5,0.7,5.16,1.49,6.64,3.83c0.3,0.48,1.32,2.1,0.77,3.57c-0.33,0.86-1.16,1.35-2.81,2.3
	c-1.13,0.65-1.84,0.91-3.83,1.79c-1.69,0.75-2.53,1.13-2.81,1.28c-3.54,1.94-3.14,5.33-5.11,5.87c-2.69,0.74-6.9-4.66-8.94-9.19
	c-0.35-0.78-1-3.08-2.3-7.66c-2.03-7.18-1.88-7.11-2.55-8.94c-1.67-4.49-2.27-4.03-4.09-8.94c-1.5-4.06-2.24-6.08-2.55-7.91
	c-0.38-2.27-0.33-3.69-1.53-4.85c-1.16-1.12-3.18-1.71-4.6-1.02c-1.35,0.66-1.16,2-2.3,2.81c-1.77,1.27-4.65-0.26-7.15-1.28
	c-1.46-0.6-9.29-3.79-15.57-2.3c-2.09,0.49-4.29,2.2-8.68,5.62c-3.7,2.87-6.86,5.38-9.7,9.7c-2.08,3.17-2.83,5.54-3.57,7.91
	c-1.49,4.74-0.75,5.82-0.51,6.13c1.17,1.47,3.99,1.35,5.87,0.77c4.11-1.26,3.89-4.72,8.94-8.17c0.77-0.53,3.47-2.29,7.4-3.06
	c4.51-0.88,8.04,0.05,9.7,0.51c2.62,0.72,6.14,1.7,6.38,3.57c0.24,1.84-2.97,2.26-4.6,6.13c-1.11,2.64-0.32,4.13-1.79,5.36
	c-1.6,1.34-4.08,0.88-4.6,0.77c-2.31-0.5-2.55-1.9-4.85-2.55c-1.99-0.56-3.73-0.06-4.85,0.26c-4.24,1.21-6.89,4.77-6.64,5.11
	c0.19,0.25,2.29-1.04,2.3-1.02c0.01,0.03-4.49,1.46-8.17,5.11c-1.35,1.34-1.32,1.71-3.83,4.34c-1.21,1.26-1.67,1.65-2.04,2.55
	c-0.62,1.5-0.36,2.9,0,4.85c0.42,2.27,0.63,3.4,1.53,4.34c1.24,1.29,3.22,1.76,4.85,1.53c2.77-0.38,3.04-2.54,7.15-5.11
	c2.24-1.39,4.27-2.66,6.38-2.04c2.53,0.74,3.67,3.75,4.09,4.85c0.85,2.26,0.67,4.23,0.51,5.87c-0.1,1.02-0.32,3.19-1.53,5.62
	c-1.38,2.77-2.38,2.55-3.83,5.36c-0.8,1.56-1.13,2.91-1.79,5.62c-0.82,3.36-0.61,4.14-1.53,6.13c-0.51,1.09-0.48,0.67-2.3,3.57
	c-1.96,3.13-2.21,3.98-3.57,5.62c-1.47,1.77-1.6,1.29-2.55,2.55c-1.22,1.61-1.25,2.72-3.06,10.21c-0.24,0.99-0.47,1.91-1.02,3.06
	c-0.27,0.57-1.07,2.12-2.55,3.57c-1.76,1.73-3.59,2.45-5.11,3.06c-6.36,2.59-3.3,1.86-9.19,4.09c-10.04,3.78-10.48,2.72-14.3,5.11
	c-2.19,1.37-5.51,3.45-7.4,7.4c-0.39,0.81-0.29,0.81-2.04,7.66c-1.43,5.58-1.62,6.07-1.79,7.66c-0.42,3.97,0.13,6.99,0.26,7.66
	c0.14,0.71,0.41,1.95,3.06,8.17c2.85,6.67,3.63,7.8,4.09,8.43c1.32,1.8,3.04,4.09,6.13,5.36c1.17,0.48,4.32,1.77,6.38,0.26
	C208.49,446.3,209.1,444.2,208.88,442.47z"/>
<path class="st4" d="M275.61,287.43c-5.48-1.55-16.33,29.25-20.68,47.49c-0.17,0.72-2.66,11.32-0.72,12.36
	c0.64,0.34,1.27-0.63,4.84-2.73c2.42-1.42,3.66-2.14,5.3-2.33c1.85-0.22,3.25,0.3,4.28,0.7c3.19,1.23,3.01,3.44,5.74,4.46
	c2.55,0.95,4.95-0.01,5.75-0.34c0.88-0.37,3.16-1.36,4.79-4.02c0.55-0.89,1.21-2.27,1.82-6.42c0.4-2.74,0.85-5.76,0.62-10.14
	c-0.28-5.29-1.36-8.96-3.05-14.57c-1.42-4.72-1.77-4.83-4.07-11.54C276.42,289.21,276.78,287.76,275.61,287.43z"/>
<path class="st5" d="M265.05,414.64c-0.02-0.17,4.97-0.92,5.02-0.68c0.02,0.12-1.26,0.56-2.38,0.68
	C266.44,414.78,266.01,414.53,265.05,414.64c0,0-1.27,0.14-2.89,1.26c-6.92,4.78-7.93,14.54-8.09,16.86
	c-0.15,2.21-0.98,14.19,6.13,19.32c4.23,3.05,8.45,1.65,13.28,6.47c2.28,2.28,3.35,4.61,3.57,5.11c2.66,5.97-0.23,10.27-0.51,20.17
	c-0.12,4.26-0.22,7.94,0.51,12.51c1.19,7.43,2.44,15.2,8.43,18.89c7.13,4.4,17.83,1.05,23.49-4.6c3.94-3.93,5.32-8.85,6.13-11.74
	c1.4-4.99,1.2-9.02,1.02-12.26c-0.36-6.41-0.58-10.28-3.57-13.53c-0.42-0.45-4.26-4.51-9.19-4.09c-8.09,0.7-12.13,12.83-12.26,20.43
	c-0.01,0.49,0.05,5.84,1.53,6.13c1.54,0.3,3.87-4.98,5.7-9.79c0.32-0.61,4.25-7.99,6.55-7.32c1.91,0.56,1.8,6.38,1.79,9.19
	c-0.01,2.39-0.31,5.99-1.79,10.21c-1.62,4.61-2.75,7.84-5.87,9.19c-2.68,1.16-5.37,0.32-6.38,0c-3.53-1.11-6.83-3.86-7.91-7.4
	c-0.44-1.43-0.12-1.66,0-7.74c0.09-4.46-0.09-4.41,0-6.81c0.17-4.64,0.82-4.91,2.04-13.28c0.86-5.89,1.29-8.84,1.36-9.87
	c0.25-3.61,0.05-4.71,1.02-5.79c1.57-1.75,3.81-0.77,9.87-1.45c4.39-0.49,7.23-0.9,8.94-3.06c1.17-1.49,1.69-3.88,0.77-5.36
	c-0.95-1.52-3.19-1.72-7.4-2.04c-4.53-0.35-5.93,0.22-6.64-0.77c-1.15-1.6,0.55-5.79,3.32-6.89c1.67-0.67,2.34,0.34,6.13,0.51
	c1.09,0.05,3.81,0.15,6.89-0.77c1.53-0.45,3.15-1.32,6.38-3.06c2.36-1.27,3.54-1.9,4.09-2.3c4.19-3.05,6.76-9.5,5.11-11.23
	c-1.5-1.57-5.23,1.99-13.96,3.74c-3.51,0.7-9.93,1.99-16.68,0c-7.96-2.35-7.79-6.71-15.66-8.85
	C272.46,412.51,265.07,414.85,265.05,414.64z"/>
<path class="st0" d="M273.48,424.51c4.02-0.35,10.69,1.56,13.28,7.15c1.74,3.75,1.69,9.26-1.7,12.6c-2.99,2.93-7.13,2.77-8.17,2.72
	c-3.72-0.15-6.23-1.99-8.17-3.4c-1.59-1.16-5.81-4.33-7.15-9.87c-0.33-1.37-1.39-5.71,0.68-7.49c1.06-0.91,2.16-0.48,6.81-1.02
	C271.86,424.87,272.29,424.61,273.48,424.51z"/>
<path class="st5" d="M329.65,425.19c0.73-1.6,1.91-4.11,4.43-6.47c0.77-0.72,6.06-5.69,12.26-4.77c0.67,0.1,1.04,0.22,8.51,4.43
	c5.81,3.27,6.41,3.66,8.17,4.43c1.27,0.55,4.35,1.82,8.51,2.72c4.12,0.89,6.18,1.34,8.17,0.68c2.51-0.83,2.12-2.06,6.47-4.77
	c3.32-2.07,5.46-2.55,6.47-2.72c1.9-0.33,3.62-0.62,5.11,0.34c2.05,1.33,2.8,4.49,2.04,6.81c-1.08,3.34-5.15,4.61-7.83,5.45
	c0,0-1.18,0.37-7.83,1.36c-5.42-2.09-8.09-1.44-9.53-0.34c-1.79,1.37-1.18,3.06-3.74,7.83c-1.99,3.69-3.68,5.13-3.06,6.13
	c0,0,0.34,0.54,5.45,0.68c2.56,2.33,2.51,3.82,2.38,4.43c-0.24,1.99-3.65,3.27-8.51,5.11c-2.71,1.02-3.19,0.97-4.09,1.7
	c-2.25,1.85-2.01,4.64-2.72,8.17c-1.04,5.15-2.45,4.32-4.43,10.55c-1.26,3.98-2.91,9.19-1.36,14.98c0.58,2.15,1.49,3.98,3.06,7.15
	c0.85,1.71,1.84,3.51,3.4,5.45c1.56,1.93,2.34,2.89,3.4,3.06c1.96,0.31,3.73-1.76,6.81-5.45c2.43-2.91,4.1-4.92,5.45-8.17
	c1.55-3.76,2.38-8.51,2.38-8.51c0.41-1.95-0.18-3.82-1.49-4.76c-1.57-1.12-3.55-0.48-3.95-0.35c-1.44,0.47-2.3,1.47-5.11,5.45
	c-2.74,3.88-3.51,5.6-4.43,5.45c-1.08-0.18-1.58-2.83-1.7-4.43c-0.61-7.63,5.12-13.65,6.47-14.98c2.12-2.09,4.06-4,7.15-4.26
	c3.91-0.32,6.8,2.24,7.32,2.72c1.88,1.74,2.53,3.69,3.23,5.79c1.39,4.17,1.17,7.71,1.02,9.7c-0.34,4.61-1.67,7.96-2.72,10.55
	c-0.97,2.38-2.32,5.61-5.11,9.19c-3.99,5.12-8.33,7.52-12.6,9.87c-1.39,0.77-2.81,1.72-4.77,1.7c-2.48-0.02-4.38-1.45-5.62-2.38
	c-2.04-1.54-3.15-3.23-3.91-4.43c-0.75-1.17-0.9-1.66-3.23-7.32c-1.57-3.8-1.68-4.01-1.87-4.77c-0.77-2.96-0.61-5.57-0.34-7.32
	c0.46-9.14,1.02-12.9,1.41-14.56c0.29-1.25,0.87-3.4,1.32-6.55c0.71-5.02,1.07-7.53,0.34-8.85c-2.03-3.7-7.68-0.79-14.64-4.77
	c-0.48-0.27-7.37-4.35-8.85-11.57c-0.33-1.61-0.11-3.8,0.34-8.17C327.77,431.49,328.09,428.6,329.65,425.19z"/>
<path class="st0" d="M337.82,428.26c0,0,7.08,1,14.64,2.38c6.76,1.24,8.06,1.71,8.85,3.06c1.33,2.28,0.44,5.76-1.02,7.83
	c-0.83,1.17-1.12,0.87-3.4,3.06c-3.06,2.94-2.86,3.78-4.43,4.43c-1.24,0.51-2.87,0.23-6.13-0.34c-2.91-0.51-4.37-0.76-5.45-1.36
	c-2.49-1.39-3.63-3.61-5.11-6.47c-1.59-3.08-2.38-4.62-2.04-6.47C334.31,431.18,337.81,428.26,337.82,428.26z"/>
<path class="st6" d="M348.37,432.34"/>
</svg>
